# AST/ASF file generated using VICON BodyLanguage
# -----------------------------------------------
:version 1.10
:name VICON
:units
  mass 1.0
  length 0.45
  angle deg
:documentation
   .ast/.asf automatically generated from VICON data using
   VICON BodyBuilder and BodyLanguage model FoxedUp or BRILLIANT.MOD
:root
   order TX TY TZ RX RY RZ
   axis XYZ
   position 0 0 0  
   orientation 0 0 0 
:bonedata
  begin
     id 1 
     name lhipjoint
     direction 0.558404 -0.748506 0.357664 
     length 2.4234 
     axis 0 0 0  XYZ
  end
  begin
     id 2 
     name lfemur
     direction 0.34202 -0.939693 0  
     length 7.14567  
     axis 0 0 20  XYZ
    dof rx ry rz
    limits (-160.0 20.0)
           (-70.0 70.0)
           (-60.0 70.0)
  end
  begin
     id 3 
     name ltibia
     direction 0.34202 -0.939693 0   
     length 8.13956   
     axis 0 0 20   XYZ
    dof rx
    limits (-10.0 170.0)
  end
  begin
     id 4 
     name lfoot
     direction 0.0791314 -0.217412 0.972867   
     length 2.00134   
     axis -90 7.62852e-016 20   XYZ
    dof rx rz
    limits (-45.0 90.0)
           (-70.0 20.0)
  end
  begin
     id 5 
     name ltoes
     direction 1.53547e-011 -4.21922e-011 1   
     length 1.00735   
     axis -90 7.62852e-016 20   XYZ
    dof rx
    limits (-90.0 20.0)
  end
  begin
     id 6 
     name rhipjoint
     direction -0.496392 -0.78327 0.374276   
     length 2.31584  
     axis 0 0 0  XYZ 
  end
  begin
     id 7 
     name rfemur
     direction -0.34202 -0.939693 0   
     length 7.47417   
     axis 0 0 -20   XYZ
    dof rx ry rz
    limits (-160.0 20.0)
           (-70.0 70.0)
           (-70.0 60.0)
  end
  begin
     id 8 
     name rtibia
     direction -0.34202 -0.939693 0   
     length 7.69071   
     axis 0 0 -20   XYZ
    dof rx
    limits (-10.0 170.0)
 end
 begin
     id 9 
     name rfoot
     direction -0.103069 -0.28318 0.953512   
     length 2.16135  
     axis -90 -7.62852e-016 -20   XYZ
    dof rx rz
    limits (-45.0 90.0)
           (-20.0 70.0)
  end
  begin
     id 10 
     name rtoes
     direction -1.53581e-011 -4.21904e-011 1   
     length 1.07867   
     axis -90 -7.62852e-016 -20   XYZ
    dof rx
    limits (-90.0 20.0)
  end
  begin
     id 11 
     name lowerback
     direction -0.0258961 0.994776 -0.0987407   
     length 2.19412   
     axis 0 0 0   XYZ
    dof rx ry rz
    limits (-20.0 45.0)
           (-30.0 30.0)
           (-30.0 30.0)
  end
  begin
     id 12 
     name upperback
     direction 0.0402454 0.999185 0.00320666   
     length 2.18445   
     axis 0 0 0   XYZ
    dof rx ry rz
    limits (-20.0 45.0)
           (-30.0 30.0)
           (-30.0 30.0)
  end
  begin
     id 13 
     name thorax
     direction 0.0519376 0.997415 0.0496558   
     length 2.21487   
     axis 0 0 0   XYZ
    dof rx ry rz
    limits (-20.0 45.0)
           (-30.0 30.0)
           (-30.0 30.0)
  end
  begin
     id 14 
     name lowerneck
     direction -0.0921276 0.983211 0.157506   
     length 1.61201   
     axis 0 0 0   XYZ
    dof rx ry rz
    limits (-20.0 45.0)
           (-30.0 30.0)
           (-30.0 30.0)
  end
  begin
     id 15 
     name upperneck
     direction 0.0820814 0.98162 -0.172292   
     length 1.65275   
     axis 0 0 0   XYZ
    dof rx ry rz
    limits (-20.0 45.0)
           (-30.0 30.0)
           (-30.0 30.0)
  end
  begin
     id 16
     name head
     direction 0.0336554 0.996413 -0.0776455  
     length 1.66415  
     axis 0 0 0   XYZ
    dof rx ry rz
    limits (-20.0 45.0)
           (-30.0 30.0)
           (-30.0 30.0)
  end
  begin
     id 17 
     name lclavicle
     direction 0.94696 0.284418 -0.149576  
     length 3.41447  
     axis 0 0 0   XYZ
    dof ry rz
    limits (-20.0 10.0)
           (0.0 20.0)
  end
  begin
     id 18 
     name lhumerus
     direction 1 -0.000130264 -9.81312e-005   
     length 5.19964   
     axis 180 -30 -90   XYZ
    dof rx ry rz
    limits (-60.0 90.0)
           (-90.0 90.0)
           (-90.0 90.0)
  end
  begin
     id 19
     name lradius
     direction 1 -4.48961e-011 1.43854e-026   
     length 3.32189   
     axis 180 -30 -90   XYZ
    dof rx
    limits (-10.0 170.0)
  end
  begin
     id 20
     name lwrist
     direction 1 -4.48958e-011 3.1502e-026   
     length 1.66095   
     axis -1.97692e-014 90 90   XYZ
    dof ry
    limits (-180.0 0.0)
 end
  begin
     id 21 
     name lhand
     direction 1 -4.48927e-011 6.3004e-026   
     length 0.645616   
     axis -4.02019e-014 90 90   XYZ
    dof rx rz
    limits (-90.0 90.0)
           (-45.0 45.0)
  end
  begin
     id 22 
     name lfingers
     direction 1 -4.4904e-011 1.26008e-025   
     length 0.520512   
     axis -8.04039e-014 90 90   XYZ
    dof rx
    limits (0.0 90.0)
  end
  begin
     id 23
     name lthumb
     direction 0.707107 -6.34947e-011 0.707107   
     length 0.747354   
     axis -90 45 2.85299e-015   XYZ
    dof rx rz
    limits (-45.0 45.0)
           (-45.0 45.0)
  end
  begin
     id 24 
     name rclavicle
     direction -0.909391 0.383475 -0.161107   
     length 3.25176  
     axis 0 0 0   XYZ 
    dof ry rz
    limits (-10.0 20.0)
           (-20.0 0.0)
  end
  begin
     id 25 
     name rhumerus
     direction -1 -4.48965e-011 -1.81384e-027  
     length 5.6595   
     axis 180 30 90   XYZ
    dof rx ry rz
    limits (-90.0 60.0)
           (-90.0 90.0)
           (-90.0 90.0)
  end
  begin
     id 26 
     name rradius
     direction -1 -4.48996e-011 -8.09397e-027   
     length 3.37604   
     axis 180 30 90   XYZ
    dof rx
    limits (-10.0 170.0)
  end
  begin
     id 27 
     name rwrist
     direction -1 -4.48927e-011 -1.56669e-026   
     length 1.68802   
     axis 1.21142e-014 -90 -90   XYZ
    dof ry
    limits (-180.0 0.0)
  end
  begin
     id 28
     name rhand
     direction -1 -4.48912e-011 -3.13339e-026   
     length 0.824702   
     axis 1.99937e-014 -90 -90   XYZ
    dof rx rz
    limits (-90.0 90.0)
           (-45.0 45.0)
  end
  begin
     id 29
     name rfingers
     direction -1 -4.49011e-011 -6.26677e-026   
     length 0.664896   
     axis 3.99874e-014 -90 -90   XYZ
    dof rx
    limits (0.0 90.0)
  end
  begin
     id 30
     name rthumb
     direction -0.707107 -6.34931e-011 0.707107   
     length 0.954662   
     axis -90 -45 -2.85299e-015   XYZ
    dof rx rz
    limits (-45.0 45.0)
           (-45.0 45.0)
  end
:hierarchy
  begin
    root lhipjoint rhipjoint lowerback
    lhipjoint lfemur
    lfemur ltibia
    ltibia lfoot
    lfoot ltoes
    rhipjoint rfemur
    rfemur rtibia
    rtibia rfoot
    rfoot rtoes
    lowerback upperback
    upperback thorax
    thorax lowerneck lclavicle rclavicle
    lowerneck upperneck
    upperneck head
    lclavicle lhumerus
    lhumerus lradius
    lradius lwrist
    lwrist lhand lthumb
    lhand lfingers
    rclavicle rhumerus
    rhumerus rradius
    rradius rwrist
    rwrist rhand rthumb
    rhand rfingers
  end

#!OML:ASF F:\VICON\USERDATA\INSTALL\rory3\rory3.ASF
:FULLY-SPECIFIED
:DEGREES
72
root 12.8449 17.9081 -43.4797 5.17433 -16.2701 0.0305464
lowerback 4.96065 1.77717 -2.97604
upperback 0.166176 2.2679 2.51333
thorax -2.82952 1.18628 4.1019
lowerneck -9.78776 -4.76572 -15.8653
upperneck 25.2631 -5.07365 5.83492
head 10.2799 -3.23224 4.13965
rclavicle 1.49089e-014 -5.56597e-015
rhumerus -31.7567 -13.5107 -71.7194
rradius 43.9366
rwrist -18.3138
rhand -11.0896 17.8991
rfingers 7.12502
rthumb 14.9342 -11.5425
lclavicle 1.49089e-014 -5.56597e-015
lhumerus -40.0608 31.9391 68.9787
lradius 26.2548
lwrist -12.619
lhand -0.139578 32.533
lfingers 7.12502
lthumb 25.4567 60.8529
rfemur -15.0923 4.10896 15.3444
rtibia 37.6334
rfoot -23.6415 -8.61343
rtoes 9.42862
lfemur -20.8173 -3.43373 -18.2278
ltibia 38.3489
lfoot -19.7868 3.44191
ltoes -0.521204
73
root 12.8816 17.8791 -43.4234 5.00318 -17.224 0.0341645
lowerback 5.21874 1.9597 -3.10456
upperback 0.0270247 2.50374 2.6525
thorax -3.15309 1.31548 4.29086
lowerneck -9.98037 -4.74294 -15.8655
upperneck 25.4293 -4.95896 5.62192
head 10.3614 -3.20623 4.07617
rclavicle 2.09718e-014 -7.95139e-016
rhumerus -32.079 -13.2193 -71.6213
rradius 43.532
rwrist -18.0542
rhand -10.8989 17.9601
rfingers 7.12502
rthumb 15.1179 -11.4678
lclavicle 2.09718e-014 -7.95139e-016
lhumerus -40.1245 31.4478 69.284
lradius 26.9406
lwrist -11.971
lhand -0.427111 33.4664
lfingers 7.12502
lthumb 25.1812 61.8253
rfemur -14.4901 5.09455 14.9479
rtibia 37.5787
rfoot -24.6576 -6.66904
rtoes 16.4576
lfemur -20.4516 -3.40476 -18.5099
ltibia 38.5873
lfoot -20.2367 4.39066
ltoes -0.482196
74
root 12.9132 17.874 -43.3898 5.04221 -17.6046 0.113209
lowerback 4.84169 2.0025 -3.16665
upperback 0.285916 2.56324 2.65054
thorax -2.68198 1.33223 4.3347
lowerneck -10.3203 -4.89308 -15.6687
upperneck 25.1355 -5.11692 5.51199
head 10.3292 -3.25631 3.97234
rclavicle -5.14852e-014 8.74653e-015
rhumerus -31.6083 -13.6465 -71.7987
rradius 42.9403
rwrist -17.399
rhand -11.0278 18.0255
rfingers 7.12502
rthumb 14.9937 -11.4117
lclavicle -5.14852e-014 8.74653e-015
lhumerus -39.1196 31.0774 69.9307
lradius 27.4945
lwrist -11.4345
lhand -0.568672 33.7376
lfingers 7.12502
lthumb 25.0456 62.1154
rfemur -14.6142 5.03808 14.7312
rtibia 37.6781
rfoot -24.3613 -6.94502
rtoes 12.9257
lfemur -20.4455 -3.30106 -18.7701
ltibia 38.7131
lfoot -20.4206 4.71512
ltoes -0.976077
75
root 12.943 17.8707 -43.3686 5.21935 -17.7615 0.241199
lowerback 4.88625 1.95827 -3.33625
upperback 0.137778 2.49528 2.65651
thorax -2.86116 1.30711 4.43872
lowerneck -10.3536 -4.91498 -15.5531
upperneck 24.9775 -5.13546 5.39919
head 10.2734 -3.26079 3.90624
rclavicle -5.11871e-014 -3.97569e-015
rhumerus -31.6208 -14.0793 -71.7727
rradius 42.3057
rwrist -17.037
rhand -10.5324 18.1348
rfingers 7.12502
rthumb 15.4709 -11.2661
lclavicle -5.11871e-014 -3.97569e-015
lhumerus -38.7028 30.6168 70.1479
lradius 27.9111
lwrist -10.8864
lhand -0.987999 32.9441
lfingers 7.12502
lthumb 24.6437 61.3774
rfemur -14.9745 4.90038 14.4815
rtibia 37.8264
rfoot -24.0994 -7.30648
rtoes 11.4805
lfemur -20.6614 -3.07366 -19.0381
ltibia 38.7617
lfoot -20.4188 4.65786
ltoes -1.39671
76
root 12.9737 17.8791 -43.3352 5.21644 -18.1813 0.330067
lowerback 5.20082 1.97284 -3.59366
upperback -0.079717 2.49714 2.77999
thorax -3.28079 1.32631 4.70124
lowerneck -10.3923 -4.8174 -15.6878
upperneck 25.0293 -4.95703 5.3638
head 10.2834 -3.19734 3.9389
rclavicle -3.68746e-014 5.56597e-015
rhumerus -31.9163 -13.9535 -71.6683
rradius 41.8743
rwrist -16.6235
rhand -10.519 18.1053
rfingers 7.12502
rthumb 15.4838 -11.2947
lclavicle -3.68746e-014 5.56597e-015
lhumerus -38.6776 30.2022 70.2985
lradius 28.3571
lwrist -10.2508
lhand -1.66981 31.6533
lfingers 7.12502
lthumb 23.9901 60.1743
rfemur -15.3026 4.87448 14.2589
rtibia 38.0337
rfoot -23.8205 -7.71991
rtoes 11.3971
lfemur -20.5325 -2.7379 -19.3091
ltibia 38.7681
lfoot -20.4492 4.69363
ltoes -1.54268
77
root 13.0054 17.884 -43.3027 5.08448 -18.5053 0.5977
lowerback 5.29272 1.93217 -3.81439
upperback -0.0592752 2.42505 2.72933
thorax -3.31055 1.29383 4.77765
lowerneck -10.6854 -4.75724 -15.6526
upperneck 24.9956 -4.83728 5.39844
head 10.3118 -3.13049 3.95689
rclavicle -1.68967e-014 6.36111e-015
rhumerus -32.0188 -13.8755 -71.8296
rradius 41.6179
rwrist -16.4215
rhand -10.2613 18.1162
rfingers 7.12502
rthumb 15.732 -11.2644
lclavicle -1.68967e-014 6.36111e-015
lhumerus -38.2488 29.7917 70.4683
lradius 28.8303
lwrist -9.63023
lhand -1.79238 31.1604
lfingers 7.12502
lthumb 23.8725 59.6968
rfemur -15.4264 4.85706 13.8362
rtibia 38.2082
rfoot -23.6856 -7.84963
rtoes 7.65912
lfemur -20.347 -2.49692 -19.7545
ltibia 38.7819
lfoot -20.5956 4.62305
ltoes -0.932247
78
root 13.037 17.8588 -43.2815 5.11347 -18.6378 0.726246
lowerback 5.37606 1.84699 -3.92693
upperback -0.151894 2.30247 2.73472
thorax -3.44468 1.23986 4.85494
lowerneck -10.6992 -4.70785 -15.5728
upperneck 24.8201 -4.76803 5.35017
head 10.2377 -3.09076 3.93196
rclavicle 1.82882e-014 0
rhumerus -32.1784 -14.0092 -71.8623
rradius 41.2323
rwrist -16.2271
rhand -9.76549 18.1311
rfingers 7.12502
rthumb 16.2095 -11.2112
lclavicle 1.82882e-014 0
lhumerus -37.9444 29.262 70.643
lradius 29.3723
lwrist -9.09032
lhand -1.73902 31.4586
lfingers 7.12502
lthumb 23.9237 59.9883
rfemur -15.2155 5.09831 13.502
rtibia 38.2861
rfoot -24.1417 -7.0729
rtoes 10.1763
lfemur -20.4516 -2.3572 -20.0144
ltibia 38.8898
lfoot -20.6621 4.43291
ltoes 0.626407
79
root 13.0661 17.8556 -43.2585 5.17579 -18.8423 0.752406
lowerback 5.50826 1.82801 -3.98466
upperback -0.204414 2.26952 2.73353
thorax -3.57223 1.2286 4.88558
lowerneck -10.8517 -4.71621 -15.4617
upperneck 24.7454 -4.78247 5.37237
head 10.2371 -3.08039 3.91663
rclavicle 4.47266e-015 1.19271e-014
rhumerus -32.1738 -14.3422 -71.9337
rradius 40.7433
rwrist -15.9003
rhand -9.73381 17.9632
rfingers 7.12502
rthumb 16.24 -11.3766
lclavicle 4.47266e-015 1.19271e-014
lhumerus -37.4556 28.5661 70.9437
lradius 29.9471
lwrist -8.50397
lhand -2.04698 31.7856
lfingers 7.12502
lthumb 23.6283 60.3537
rfemur -15.3803 5.17343 13.334
rtibia 38.3805
rfoot -24.0789 -7.05368
rtoes 9.45419
lfemur -20.4884 -2.08786 -20.179
ltibia 38.9657
lfoot -20.4815 4.40865
ltoes 0.0835512
80
root 13.0945 17.8531 -43.2354 5.16932 -19.0785 0.940422
lowerback 5.76291 1.81687 -4.26858
upperback -0.301644 2.22749 2.7267
thorax -3.8233 1.22148 5.03674
lowerneck -11.2331 -4.72273 -15.3689
upperneck 24.9188 -4.75095 5.37373
head 10.3666 -3.05824 3.90386
rclavicle 6.06293e-015 2.38542e-015
rhumerus -32.2967 -14.387 -72.0036
rradius 40.4107
rwrist -15.8838
rhand -10.0306 17.7396
rfingers 7.12502
rthumb 15.9542 -11.6233
lclavicle 6.06293e-015 2.38542e-015
lhumerus -37.0653 27.8757 71.1943
lradius 30.525
lwrist -7.88458
lhand -2.39523 32.0938
lfingers 7.12502
lthumb 23.2943 60.7046
rfemur -15.5494 5.17175 13.0166
rtibia 38.488
rfoot -24.0532 -7.01584
rtoes 9.20404
lfemur -20.5122 -1.83746 -20.5087
ltibia 39.0427
lfoot -20.2081 4.36631
ltoes -0.701537
81
root 13.1242 17.852 -43.2126 5.18859 -19.2733 1.10723
lowerback 6.28053 1.73058 -4.65507
upperback -0.695841 2.07211 2.87173
thorax -4.52971 1.18306 5.41167
lowerneck -11.0766 -4.60596 -15.5094
upperneck 25.0369 -4.56456 5.27904
head 10.3617 -3.00412 3.92071
rclavicle 3.6477e-014 -3.57812e-014
rhumerus -32.914 -14.0077 -71.8107
rradius 40.1409
rwrist -15.907
rhand -10.0156 17.7443
rfingers 7.12502
rthumb 15.9686 -11.6175
lclavicle 3.6477e-014 -3.57812e-014
lhumerus -37.5426 27.3397 71.1632
lradius 31.2692
lwrist -7.36021
lhand -2.53922 31.8708
lfingers 7.12502
lthumb 23.1561 60.499
rfemur -15.7673 5.08786 12.7301
rtibia 38.6793
rfoot -23.8506 -7.15545
rtoes 7.47616
lfemur -20.5284 -1.69727 -20.8046
ltibia 39.0072
lfoot -20.4197 4.16306
ltoes 1.48305
